<svg width="112" height="29" viewBox="0 0 112 29" fill="none" xmlns="http://www.w3.org/2000/svg">
<path d="M37.9633 22.5477C39.0933 23.1047 40.4462 23.3833 42.0219 23.3833C43.6772 23.3833 45.1017 23.0729 46.2954 22.4522C47.4891 21.8314 48.4282 21.0038 49.1126 19.9692C49.797 18.9347 50.2188 17.7967 50.3779 16.5552H46.9639C46.7729 17.7171 46.2238 18.6243 45.3166 19.2769C44.4252 19.9135 43.327 20.2319 42.0219 20.2319C41.1306 20.2319 40.3427 20.0807 39.6583 19.7782C38.9898 19.4758 38.4248 19.0541 37.9633 18.5129C37.5017 17.9558 37.1515 17.3112 36.9128 16.5791C36.6899 15.8469 36.5785 15.0511 36.5785 14.1916C36.5785 13.3003 36.6899 12.4886 36.9128 11.7565C37.1515 11.0243 37.4937 10.3877 37.9394 9.8465C38.385 9.30535 38.9421 8.89152 39.6106 8.60503C40.2791 8.30262 41.043 8.15142 41.9025 8.15142C42.7461 8.15142 43.5021 8.29467 44.1706 8.58116C44.8391 8.85173 45.3882 9.26556 45.8179 9.82263C46.2636 10.3638 46.5501 11.0323 46.6774 11.8281H50.0914C49.9482 10.4593 49.5264 9.26556 48.8261 8.24692C48.1258 7.21236 47.1867 6.41655 46.0089 5.85948C44.847 5.28649 43.4782 5 41.9025 5C40.3905 5 39.0774 5.26262 37.9633 5.78785C36.865 6.29717 35.9578 6.98157 35.2416 7.84105C34.5253 8.70053 33.9921 9.6555 33.642 10.706C33.3077 11.7564 33.1406 12.8228 33.1406 13.9051V14.4304C33.1406 15.4013 33.3077 16.412 33.642 17.4624C33.9762 18.5129 34.4935 19.4838 35.1938 20.3751C35.9101 21.2664 36.8332 21.9906 37.9633 22.5477Z" fill="#131313"/>
<path fill-rule="evenodd" clip-rule="evenodd" d="M59.2312 21.354C59.3953 21.0758 59.5306 20.7688 59.6371 20.4331V22.9297H62.2633V14.884C62.2633 13.6744 62.0325 12.6955 61.5709 11.9474C61.1253 11.1994 60.4568 10.6503 59.5655 10.3001C58.6901 9.94996 57.5839 9.77488 56.2469 9.77488C55.8172 9.77488 55.3556 9.78284 54.8622 9.79875C54.3847 9.79875 53.9152 9.81467 53.4536 9.8465C52.992 9.87833 52.5782 9.91016 52.2122 9.942V12.7592C52.6578 12.7273 53.1592 12.7035 53.7162 12.6876C54.2892 12.6557 54.8543 12.6318 55.4113 12.6159C55.9684 12.6 56.4459 12.5921 56.8438 12.5921C57.6078 12.5921 58.1728 12.7751 58.5389 13.1412C58.9049 13.5072 59.088 14.0643 59.088 14.8124V14.9317H56.4379C55.2919 14.9317 54.2892 15.0829 53.4297 15.3854C52.5862 15.6878 51.9257 16.1414 51.4482 16.7462C50.9866 17.351 50.7558 18.1309 50.7558 19.0859C50.7558 19.9613 50.9468 20.7093 51.3288 21.3301C51.7267 21.9508 52.2758 22.4283 52.9761 22.7625C53.6924 23.0968 54.52 23.2639 55.4591 23.2639C56.3663 23.2639 57.1303 23.1047 57.751 22.7864C58.3877 22.4522 58.8811 21.9747 59.2312 21.354ZM58.6344 19.8021C58.9049 19.3883 59.0561 18.8312 59.088 18.1309V16.9133H56.3902C55.6262 16.9133 55.0373 17.1043 54.6235 17.4863C54.2256 17.8524 54.0266 18.3299 54.0266 18.9188C54.0266 19.5077 54.2256 19.9852 54.6235 20.3512C55.0373 20.7173 55.6262 20.9003 56.3902 20.9003C56.8517 20.9003 57.2735 20.8208 57.6555 20.6616C58.0534 20.4865 58.3797 20.2 58.6344 19.8021Z" fill="#131313"/>
<path d="M70.3779 23.3833C69.2479 23.3833 68.269 23.1923 67.4414 22.8103C66.6297 22.4283 65.9453 21.919 65.3882 21.2823C64.847 20.6457 64.4412 19.9294 64.1706 19.1336C63.9 18.3378 63.7647 17.5261 63.7647 16.6984V16.2448C63.7647 15.3694 63.9 14.5338 64.1706 13.738C64.4571 12.9263 64.8789 12.2101 65.4359 11.5893C65.993 10.9527 66.6774 10.4513 67.4891 10.0852C68.3168 9.70325 69.2718 9.51226 70.3541 9.51226C71.4841 9.51226 72.4948 9.73509 73.3861 10.1807C74.2774 10.6105 74.9857 11.2153 75.5109 11.9952C76.0521 12.7751 76.3545 13.6823 76.4182 14.7169H73.1951C73.1155 14.0484 72.829 13.4913 72.3356 13.0457C71.8582 12.6 71.1976 12.3772 70.3541 12.3772C69.6219 12.3772 69.0091 12.5523 68.5157 12.9024C68.0383 13.2526 67.6801 13.738 67.4414 14.3588C67.2026 14.9636 67.0833 15.6639 67.0833 16.4597C67.0833 17.2237 67.1947 17.916 67.4175 18.5368C67.6563 19.1575 68.0144 19.643 68.4919 19.9931C68.9853 20.3433 69.614 20.5183 70.3779 20.5183C70.9509 20.5183 71.4443 20.4149 71.8582 20.208C72.272 20.0011 72.5983 19.7146 72.837 19.3485C73.0917 18.9824 73.2508 18.5686 73.3145 18.107H76.5375C76.4739 19.1575 76.1635 20.0807 75.6064 20.8765C75.0653 21.6564 74.3411 22.2691 73.4339 22.7148C72.5425 23.1604 71.5239 23.3833 70.3779 23.3833Z" fill="#131313"/>
<path d="M80.6762 22.6432C81.4561 22.9456 82.4429 23.0968 83.6366 23.0968H85.4988V20.2557H83.4695C82.8328 20.2557 82.3394 20.0886 81.9893 19.7544C81.655 19.4042 81.4879 18.9108 81.4879 18.2742L81.4996 12.4011H85.4988V9.96587H81.5045L81.5118 6.31309H78.4081L78.4007 9.96587H76.3311V12.4011H78.3958L78.3843 18.0593C78.3843 19.3167 78.5752 20.3194 78.9572 21.0675C79.3392 21.7996 79.9122 22.3248 80.6762 22.6432Z" fill="#131313"/>
<path d="M91.5071 23.3355C90.011 23.3355 88.8491 22.8421 88.0215 21.8553C87.2097 20.8685 86.8039 19.4042 86.8039 17.4624V9.942H90.1224V17.7489C90.1224 18.5447 90.3453 19.1814 90.7909 19.6589C91.2366 20.1204 91.8414 20.3512 92.6054 20.3512C93.3693 20.3512 93.9901 20.1045 94.4676 19.6111C94.961 19.1177 95.2077 18.4492 95.2077 17.6057V9.942H98.5262V22.9297H95.9V19.9108C95.8332 20.1854 95.7536 20.4436 95.6613 20.6855C95.327 21.5609 94.8257 22.2214 94.1572 22.667C93.4887 23.1127 92.6531 23.3355 91.6504 23.3355H91.5071Z" fill="#131313"/>
<path d="M101.646 22.2134C102.665 22.9615 104.065 23.3355 105.848 23.3355C106.994 23.3355 107.989 23.1604 108.832 22.8103C109.676 22.4601 110.328 21.9747 110.79 21.354C111.267 20.7173 111.506 19.9692 111.506 19.1098C111.506 17.9479 111.068 17.0247 110.193 16.3403C109.333 15.6559 108.14 15.2342 106.612 15.075L105.466 14.9556C104.766 14.876 104.256 14.7248 103.938 14.502C103.635 14.2792 103.484 13.9609 103.484 13.547C103.484 13.1173 103.675 12.7671 104.057 12.4966C104.439 12.226 104.98 12.0907 105.681 12.0907C106.461 12.0907 107.057 12.2499 107.471 12.5682C107.885 12.8865 108.108 13.2685 108.14 13.7141H111.124C111.076 12.3613 110.559 11.3347 109.572 10.6344C108.585 9.93404 107.296 9.58388 105.705 9.58388C104.686 9.58388 103.779 9.74304 102.983 10.0614C102.203 10.3638 101.59 10.8174 101.145 11.4222C100.699 12.027 100.476 12.7751 100.476 13.6664C100.476 14.7805 100.866 15.6718 101.646 16.3403C102.426 17.0088 103.54 17.4226 104.988 17.5818L106.134 17.7012C106.994 17.7808 107.599 17.9479 107.949 18.2025C108.315 18.4572 108.498 18.7994 108.498 19.2291C108.498 19.7225 108.259 20.1125 107.782 20.399C107.32 20.6855 106.691 20.8287 105.896 20.8287C104.941 20.8287 104.24 20.6457 103.795 20.2796C103.349 19.9135 103.102 19.5077 103.055 19.062H100.07C100.118 20.399 100.643 21.4494 101.646 22.2134Z" fill="#131313"/>
<path fill-rule="evenodd" clip-rule="evenodd" d="M14.3234 0C6.41282 0 0 6.41282 0 14.3234C0 22.234 6.41282 28.6469 14.3234 28.6469C22.234 28.6469 28.6469 22.234 28.6469 14.3234C28.6469 6.41282 22.234 0 14.3234 0ZM3.21179 14.3234C3.21179 8.18664 8.18664 3.21179 14.3234 3.21179C20.4602 3.21179 25.4351 8.18664 25.4351 14.3234C25.4351 19.924 21.2916 24.5568 15.9029 25.3237V22.8726L18.7549 21.8198C20.4032 21.2113 21.4978 19.6404 21.4978 17.8834V13.0575C21.4978 12.1705 20.7788 11.4516 19.8919 11.4516C19.005 11.4516 18.286 12.1705 18.286 13.0575V17.8834C18.286 18.2955 18.0293 18.664 17.6426 18.8068L15.9029 19.449V6.73757C15.9029 5.85065 15.184 5.13167 14.297 5.13167C13.4101 5.13167 12.6911 5.85065 12.6911 6.73757V13.628L11.0034 13.0049C10.6168 12.8622 10.36 12.4937 10.36 12.0816V10.0012C10.36 9.11425 9.64102 8.39526 8.75411 8.39526C7.8672 8.39526 7.14821 9.11425 7.14821 10.0012V12.0816C7.14821 13.8385 8.24285 15.4095 9.89111 16.0179L12.6911 17.0516V25.316C7.32821 24.5265 3.21179 19.9057 3.21179 14.3234Z" fill="#BA12FD"/>
</svg>
