<svg width="103" height="19" viewBox="0 0 103 19" fill="none" xmlns="http://www.w3.org/2000/svg">
<path d="M32.9562 16.9664C31.4741 16.9664 30.164 16.6753 29.026 16.093C27.888 15.4975 27.008 14.6572 26.386 13.5722C25.7641 12.4871 25.4531 11.2101 25.4531 9.74123C25.4531 8.27238 25.7641 6.99541 26.386 5.91031C27.008 4.81199 27.888 3.9717 29.026 3.38945C30.164 2.79397 31.4741 2.49623 32.9562 2.49623C33.9619 2.49623 34.8485 2.6021 35.616 2.81382C36.3967 3.01232 37.1113 3.3299 37.7597 3.76659V6.64474C37.1775 6.16836 36.5092 5.8243 35.7549 5.61257C35.0139 5.38762 34.167 5.27514 33.2142 5.27514C32.3276 5.27514 31.527 5.4604 30.8124 5.83092C30.1111 6.1882 29.5553 6.70429 29.1451 7.37916C28.7349 8.05404 28.5298 8.8414 28.5298 9.74123C28.5298 10.6543 28.715 11.4549 29.0855 12.143C29.4693 12.8179 30.0052 13.3406 30.6933 13.7111C31.3815 14.0816 32.1754 14.2669 33.0753 14.2669C33.8957 14.2669 34.6103 14.1213 35.219 13.8302V11.1505H32.976V8.92741H38.1368V15.6166C36.8268 16.5165 35.0999 16.9664 32.9562 16.9664Z" fill="#131313"/>
<path d="M38.8336 7.14097H41.7316V8.51058C42.1153 8.04742 42.6513 7.69675 43.3394 7.45856C44.0275 7.20714 44.8082 7.08142 45.6816 7.08142V9.3641C44.7685 9.3641 43.9613 9.50304 43.26 9.78093C42.5719 10.0588 42.0955 10.4823 41.8308 11.0513V16.6686H38.8336V7.14097Z" fill="#131313"/>
<path d="M51.4415 16.9664C49.6153 16.9664 48.1796 16.5297 47.1342 15.6563C46.0888 14.7697 45.5661 13.5325 45.5661 11.9445C45.5661 10.3698 46.0292 9.1259 46.9555 8.21284C47.895 7.29977 49.2316 6.84323 50.9651 6.84323C52.1031 6.84323 53.0691 7.05496 53.8631 7.47841C54.657 7.90186 55.2591 8.49073 55.6694 9.245C56.0796 9.98604 56.2847 10.8263 56.2847 11.7659V12.9767H48.4244C48.6361 14.1941 49.7741 14.8028 51.8384 14.8028C52.4472 14.8028 53.0757 14.7499 53.7241 14.644C54.3725 14.5382 54.9349 14.3926 55.4113 14.2073V16.3114C54.9482 16.5098 54.3527 16.6686 53.6249 16.7877C52.8971 16.9068 52.1693 16.9664 51.4415 16.9664ZM53.4462 11.0314C53.4065 10.3963 53.1683 9.90664 52.7317 9.56259C52.295 9.2053 51.6929 9.02666 50.9254 9.02666C50.1711 9.02666 49.5756 9.2053 49.1389 9.56259C48.7023 9.91988 48.4641 10.4095 48.4244 11.0314H53.4462Z" fill="#131313"/>
<path d="M62.4284 16.9664C60.6022 16.9664 59.1665 16.5297 58.1211 15.6563C57.0757 14.7697 56.553 13.5325 56.553 11.9445C56.553 10.3698 57.0161 9.1259 57.9424 8.21284C58.882 7.29977 60.2185 6.84323 61.952 6.84323C63.09 6.84323 64.056 7.05496 64.85 7.47841C65.644 7.90186 66.246 8.49073 66.6563 9.245C67.0665 9.98604 67.2716 10.8263 67.2716 11.7659V12.9767H59.4113C59.623 14.1941 60.761 14.8028 62.8254 14.8028C63.4341 14.8028 64.0626 14.7499 64.711 14.644C65.3594 14.5382 65.9218 14.3926 66.3982 14.2073V16.3114C65.9351 16.5098 65.3396 16.6686 64.6118 16.7877C63.884 16.9068 63.1562 16.9664 62.4284 16.9664ZM64.4331 11.0314C64.3934 10.3963 64.1553 9.90664 63.7186 9.56259C63.2819 9.2053 62.6798 9.02666 61.9123 9.02666C61.158 9.02666 60.5625 9.2053 60.1258 9.56259C59.6892 9.91988 59.451 10.4095 59.4113 11.0314H64.4331Z" fill="#131313"/>
<path d="M67.9369 7.14097H70.8349V8.31208C71.2715 7.82247 71.7876 7.45856 72.3831 7.22037C72.9918 6.96895 73.627 6.84323 74.2886 6.84323C75.5855 6.84323 76.5515 7.1939 77.1866 7.89525C77.835 8.58336 78.1593 9.51627 78.1593 10.694V16.6686H75.162V11.0314C75.162 9.80078 74.593 9.18545 73.455 9.18545C72.9521 9.18545 72.4823 9.31116 72.0457 9.56259C71.609 9.80078 71.2385 10.1581 70.9341 10.6345V16.6686H67.9369V7.14097Z" fill="#131313"/>
<path d="M80.8039 5.67212C80.3407 5.67212 79.9503 5.51995 79.6328 5.21559C79.3152 4.91123 79.1564 4.52748 79.1564 4.06433C79.1564 3.61441 79.3152 3.23727 79.6328 2.93292C79.9503 2.61533 80.3407 2.45653 80.8039 2.45653C81.267 2.45653 81.6574 2.61533 81.975 2.93292C82.2926 3.23727 82.4514 3.61441 82.4514 4.06433C82.4514 4.52748 82.2926 4.91123 81.975 5.21559C81.6574 5.51995 81.267 5.67212 80.8039 5.67212ZM79.2953 7.14097H82.3124V16.6686H79.2953V7.14097Z" fill="#131313"/>
<path d="M87.4242 16.9664C86.7097 16.9664 85.9421 16.887 85.1217 16.7282C84.3145 16.5826 83.6793 16.3709 83.2162 16.093V13.7508C83.7455 14.0684 84.3807 14.3264 85.1217 14.5249C85.8627 14.7234 86.5509 14.8227 87.186 14.8227C87.7286 14.8227 88.1256 14.7763 88.377 14.6837C88.6284 14.5911 88.7541 14.4191 88.7541 14.1676C88.7541 13.9691 88.6814 13.8103 88.5358 13.6912C88.3902 13.5589 88.1653 13.4464 87.8609 13.3538C87.5698 13.2479 87.0802 13.0958 86.3921 12.8973C85.5849 12.6591 84.9497 12.4209 84.4865 12.1827C84.0366 11.9313 83.6926 11.6203 83.4544 11.2498C83.2294 10.8793 83.1169 10.4029 83.1169 9.82063C83.1169 8.82816 83.5073 8.08712 84.288 7.59751C85.082 7.09466 86.1539 6.84323 87.5036 6.84323C88.1653 6.84323 88.8468 6.91601 89.5481 7.06158C90.2627 7.1939 90.8118 7.37255 91.1956 7.59751V9.88018C90.8118 9.62875 90.309 9.42364 89.6871 9.26485C89.0783 9.10605 88.4829 9.02666 87.9006 9.02666C87.3581 9.02666 86.9346 9.07959 86.6303 9.18545C86.3391 9.29131 86.1936 9.48981 86.1936 9.78093C86.1936 10.0324 86.3325 10.2242 86.6104 10.3566C86.9015 10.4889 87.4375 10.6543 88.2182 10.8528L88.6152 10.952C89.4489 11.177 90.0973 11.4284 90.5604 11.7063C91.0236 11.971 91.3478 12.2952 91.533 12.6789C91.7315 13.0495 91.8308 13.5192 91.8308 14.0882C91.8308 14.9616 91.4536 15.6629 90.6994 16.1923C89.9451 16.7083 88.8534 16.9664 87.4242 16.9664Z" fill="#131313"/>
<path d="M92.5236 2H95.5209V8.23268C95.9708 7.76953 96.4803 7.42548 97.0493 7.20052C97.6183 6.96233 98.227 6.84323 98.8754 6.84323C100.172 6.84323 101.138 7.1939 101.773 7.89525C102.422 8.58336 102.746 9.51627 102.746 10.694V16.6686H99.7488V11.0314C99.7488 9.80078 99.1798 9.18545 98.0418 9.18545C97.5389 9.18545 97.0691 9.31116 96.6325 9.56259C96.1958 9.80078 95.8252 10.1581 95.5209 10.6345V16.6686H92.5236V2Z" fill="#131313"/>
<path d="M0.0332031 8.79883C5.00703 8.46356 9.34233 12.1875 9.74609 17.1719C9.78793 17.6884 9.78589 18.1985 9.74316 18.6982C4.76938 19.0335 0.434101 15.3095 0.0302734 10.3252C-0.0115662 9.8087 -0.00952345 9.29854 0.0332031 8.79883ZM19.8076 8.80859C20.3241 8.76675 20.8343 8.7688 21.334 8.81152C21.669 13.7851 17.9451 18.1197 12.9609 18.5234C12.4444 18.5653 11.9343 18.5632 11.4346 18.5205C11.0994 13.5468 14.8234 9.21242 19.8076 8.80859ZM10.6523 0C13.1737 0 15.2178 2.04406 15.2178 4.56543C15.2177 7.08674 13.1737 9.13086 10.6523 9.13086C8.13114 9.13071 6.08698 7.08665 6.08691 4.56543C6.08691 2.04415 8.1311 0.000145597 10.6523 0Z" fill="#008000"/>
</svg>
