<svg width="108" height="23" viewBox="0 0 108 23" fill="none" xmlns="http://www.w3.org/2000/svg">
<path d="M87.8291 1V21.0212H90.7593V1H87.8291Z" fill="#131313"/>
<path fill-rule="evenodd" clip-rule="evenodd" d="M61.333 21.3444C60.1767 21.3444 59.2108 21.0751 58.4351 20.5364C58.3503 20.4775 58.2677 20.4162 58.1874 20.3527V21.0212H55.6019V1.32318H58.5536V9.76179C59.2777 9.2962 60.1539 9.0634 61.1822 9.0634C62.2954 9.0634 63.265 9.32913 64.0909 9.86059C64.9168 10.392 65.556 11.121 66.0084 12.0475C66.4681 12.9668 66.6979 14.0189 66.6979 15.2039C66.6979 16.3674 66.4717 17.4123 66.0192 18.3388C65.5739 19.2652 64.9491 19.9978 64.1447 20.5364C63.3404 21.0751 62.4031 21.3444 61.333 21.3444ZM58.4459 13.351C58.2735 13.8824 58.1874 14.5001 58.1874 15.2039C58.1874 15.9077 58.2735 16.5254 58.4459 17.0568C58.6183 17.5883 58.8984 18.0012 59.2862 18.2957C59.6812 18.5901 60.2055 18.7374 60.859 18.7374C61.491 18.7374 62.0081 18.5794 62.4103 18.2634C62.8125 17.9474 63.1105 17.5236 63.3045 16.9922C63.4984 16.4535 63.5953 15.8575 63.5953 15.2039C63.5953 14.5575 63.4948 13.9686 63.2937 13.4372C63.0926 12.8985 62.7802 12.4712 62.3564 12.1552C61.9399 11.832 61.4048 11.6704 60.7513 11.6704C60.1408 11.6704 59.6453 11.8177 59.2646 12.1121C58.8912 12.4066 58.6183 12.8195 58.4459 13.351Z" fill="#131313"/>
<path d="M50.9692 14.1482V21.0212H53.8994V13.3725C53.8994 12.1013 53.5583 11.0743 52.876 10.2915C52.2009 9.5015 51.199 9.10649 49.8704 9.10649C49.0948 9.10649 48.3873 9.27886 47.7482 9.62359C47.163 9.93614 46.6855 10.3657 46.3158 10.9122C46.0402 10.4162 45.6594 10.0082 45.1735 9.68823C44.5917 9.3004 43.8448 9.10649 42.9327 9.10649C42.1355 9.10649 41.4137 9.28245 40.7674 9.63436C40.2789 9.90328 39.866 10.2456 39.5285 10.6613V9.38659H36.943V21.0212H39.8948V13.9758C39.8948 13.3079 40.0779 12.7657 40.4442 12.3491C40.8176 11.9254 41.3096 11.7135 41.9201 11.7135C42.5592 11.7135 43.0584 11.929 43.4175 12.3599C43.7838 12.7836 43.9669 13.3797 43.9669 14.1482V21.0212H46.8971V13.9758C46.8971 13.5305 46.9797 13.1391 47.1449 12.8016C47.3172 12.4568 47.5542 12.1911 47.8559 12.0044C48.1575 11.8105 48.513 11.7135 48.9224 11.7135C49.5616 11.7135 50.0607 11.929 50.4198 12.3599C50.7861 12.7836 50.9692 13.3797 50.9692 14.1482Z" fill="#131313"/>
<path d="M26.4451 20.9027C27.0196 21.2115 27.7629 21.3659 28.675 21.3659C29.817 21.3659 30.7614 21.1182 31.5083 20.6226C31.8628 20.3897 32.1752 20.1226 32.4455 19.8215V21.0212H35.031V9.38659H32.0793V15.2901C32.0793 16.0083 31.9967 16.59 31.8315 17.0353C31.6735 17.4734 31.4688 17.8073 31.2174 18.0371C30.9661 18.2598 30.6967 18.4106 30.4095 18.4896C30.1222 18.5686 29.8529 18.6081 29.6015 18.6081C28.9767 18.6081 28.4919 18.4681 28.1472 18.188C27.8096 17.9079 27.5654 17.5595 27.4146 17.143C27.2638 16.7264 27.174 16.3135 27.1453 15.9041C27.1166 15.4876 27.1022 15.1465 27.1022 14.8807V9.38659H24.1289V15.9149C24.1289 16.1088 24.1433 16.4176 24.172 16.8414C24.2007 17.2651 24.2833 17.7355 24.4198 18.2526C24.5562 18.7625 24.7825 19.2545 25.0985 19.7285C25.4216 20.2025 25.8705 20.5939 26.4451 20.9027Z" fill="#131313"/>
<path d="M67.9911 9.38659V21.0212H70.9429V15.0746C70.9429 14.6294 71.0039 14.2308 71.126 13.8789C71.2481 13.5198 71.4277 13.2109 71.6647 12.9524C71.9017 12.6867 72.1925 12.4748 72.5373 12.3168C72.882 12.1516 73.2662 12.0547 73.69 12.0259C74.1209 11.99 74.4979 12.0223 74.8211 12.1229V9.38659C74.4692 9.34349 74.1173 9.33631 73.7654 9.36504C73.4135 9.38659 73.0723 9.44763 72.742 9.54818C72.4116 9.64154 72.1064 9.77441 71.8263 9.94677C71.46 10.1622 71.1512 10.4351 70.8998 10.7655C70.7808 10.9219 70.6731 11.0863 70.5766 11.2588V9.38659H67.9911Z" fill="#131313"/>
<path fill-rule="evenodd" clip-rule="evenodd" d="M80.9906 21.3444C79.7984 21.3444 78.7462 21.0894 77.8341 20.5795C76.9292 20.0624 76.2182 19.355 75.7011 18.4573C75.1912 17.5524 74.9362 16.5182 74.9362 15.3547C74.9362 14.0835 75.1876 12.9775 75.6903 12.0367C76.1931 11.0959 76.8861 10.3669 77.7695 9.84982C78.6529 9.32554 79.6691 9.0634 80.8182 9.0634C82.0391 9.0634 83.0769 9.35068 83.9316 9.92523C84.7862 10.4998 85.4182 11.3077 85.8276 12.3491C86.2369 13.3905 86.3806 14.615 86.2585 16.0226H78.089C78.1806 16.7209 78.3972 17.2883 78.7391 17.7247C79.2131 18.3136 79.9061 18.6081 80.8182 18.6081C81.3928 18.6081 81.8847 18.4824 82.2941 18.2311C82.7035 17.9797 83.0159 17.617 83.2313 17.143L86.1615 17.9833C85.7234 19.0462 85.0304 19.8721 84.0824 20.461C83.1415 21.0499 82.1109 21.3444 80.9906 21.3444ZM82.7896 12.3922C83.0401 12.7324 83.2081 13.2172 83.2938 13.8465H78.1662C78.2803 13.3092 78.4713 12.8675 78.7391 12.5215C79.2131 11.911 79.9492 11.6058 80.9475 11.6058C81.8021 11.6058 82.4162 11.8679 82.7896 12.3922Z" fill="#131313"/>
<path d="M93.1272 21.0212V1H96.0574V21.0212H93.1272Z" fill="#131313"/>
<path fill-rule="evenodd" clip-rule="evenodd" d="M99.3194 20.8704C99.9011 21.1864 100.608 21.3444 101.442 21.3444C102.447 21.3444 103.277 21.172 103.93 20.8273C104.451 20.5498 104.943 20.1384 105.406 19.593V21.0212H107.97V13.9112C107.97 13.3797 107.948 12.8985 107.905 12.4676C107.862 12.0367 107.726 11.6058 107.496 11.1749C107.087 10.3992 106.483 9.85341 105.686 9.53741C104.889 9.2214 103.977 9.0634 102.95 9.0634C101.549 9.0634 100.443 9.36504 99.6318 9.96832C98.8202 10.5716 98.2672 11.3544 97.9727 12.3168L100.623 13.1571C100.81 12.6256 101.136 12.2557 101.603 12.0475C102.07 11.8392 102.519 11.7351 102.95 11.7351C103.725 11.7351 104.278 11.8967 104.609 12.2198C104.868 12.4736 105.026 12.8404 105.082 13.32C104.585 13.3951 104.115 13.4665 103.672 13.5341C102.917 13.6419 102.242 13.7568 101.646 13.8789C101.05 14.0009 100.537 14.141 100.106 14.299C99.4809 14.5288 98.9818 14.8161 98.6083 15.1608C98.2421 15.4984 97.9763 15.8898 97.8112 16.335C97.646 16.7803 97.5634 17.2723 97.5634 17.8109C97.5634 18.4573 97.7106 19.0498 98.0051 19.5884C98.3067 20.1199 98.7448 20.5472 99.3194 20.8704ZM103.424 18.7589C103.058 18.9456 102.605 19.039 102.066 19.039C101.729 19.039 101.438 18.9887 101.194 18.8882C100.95 18.7876 100.759 18.644 100.623 18.4573C100.494 18.2634 100.429 18.0335 100.429 17.7678C100.429 17.5739 100.468 17.398 100.547 17.24C100.634 17.082 100.763 16.9383 100.935 16.809C101.115 16.6726 101.348 16.5469 101.636 16.432C101.887 16.3386 102.178 16.2525 102.508 16.1734C102.838 16.0944 103.273 16.0083 103.812 15.9149C104.158 15.8503 104.572 15.7768 105.055 15.6944C105.048 15.8992 105.036 16.1307 105.018 16.3889C104.997 16.8055 104.91 17.1717 104.76 17.4877C104.681 17.6529 104.53 17.8576 104.307 18.1018C104.092 18.346 103.797 18.565 103.424 18.7589Z" fill="#131313"/>
<path fill-rule="evenodd" clip-rule="evenodd" d="M7.95715 9.49725H0V12.9625C0 18.1368 4.19461 22.3314 9.36891 22.3314C14.5432 22.3314 18.7378 18.1368 18.7378 12.9625V9.49725H10.524L10.524 3.97858C10.524 1.78127 8.74272 0 6.54541 0C4.3481 -5.39913e-07 2.56683 1.78127 2.56683 3.97858L5.13365 3.97858C5.13365 3.19889 5.76572 2.56682 6.54541 2.56682C7.3251 2.56682 7.95716 3.19889 7.95716 3.97858L7.95715 9.49725ZM7.95715 12.0641L7.95715 16.941L10.524 16.941L10.524 12.0641H16.171V12.9625C16.171 16.7192 13.1256 19.7646 9.36891 19.7646C5.61222 19.7646 2.56683 16.7192 2.56683 12.9625V12.0641H7.95715Z" fill="#FF0000"/>
</svg>
