<svg width="139" height="23" viewBox="0 0 139 23" fill="none" xmlns="http://www.w3.org/2000/svg">
<path d="M6.22754 7.84277C10.4241 7.84277 13.8261 11.2449 13.8262 15.4414V21.6689H10.0469V15.4414C10.0469 14.9946 9.97015 14.5655 9.8291 14.167L4.27734 19.7188L1.60449 17.0459L6.95801 11.6924C6.72159 11.6466 6.47733 11.623 6.22754 11.623H0V7.84277H6.22754ZM28.3145 11.623H22.0869C21.737 11.6231 21.3981 11.6697 21.0762 11.7578L26.8828 17.5654L24.2109 20.2373L18.4033 14.4307C18.3152 14.7526 18.2676 15.0915 18.2676 15.4414V21.6689H14.4883V15.4414C14.4884 11.2449 17.8904 7.8428 22.0869 7.84277H28.3145V11.623ZM14.1104 0C16.3367 9.63729e-05 18.1414 1.8049 18.1416 4.03125C18.1416 6.25774 16.3368 8.06338 14.1104 8.06348C11.8838 8.06348 10.0791 6.2578 10.0791 4.03125C10.0793 1.80484 11.8839 0 14.1104 0Z" fill="#0000FF"/>
<path d="M33.3164 22.4538V0.72943H39.469L46.0656 19.3458H46.5413V0.72943H50.0616V22.4538H44.0359L37.2807 3.80573H36.8367V22.4538H33.3164Z" fill="#131313"/>
<path d="M64.1646 19.5995L65.0526 19.5044L65.116 22.0732C62.7057 22.5595 60.5703 22.8027 58.7097 22.8027C56.3629 22.8027 54.6714 22.1578 53.6354 20.8681C52.6206 19.5784 52.1131 17.5169 52.1131 14.6838C52.1131 9.05975 54.4071 6.24774 58.9952 6.24774C63.4352 6.24774 65.6552 8.6686 65.6552 13.5103L65.4332 15.9841H55.6017C55.6229 17.2949 55.9083 18.2569 56.458 18.8701C57.0077 19.4832 58.0332 19.7898 59.5343 19.7898C61.0355 19.7898 62.5789 19.7264 64.1646 19.5995ZM62.2617 13.32C62.2617 11.7555 62.008 10.6666 61.5006 10.0535C61.0143 9.41918 60.1792 9.10203 58.9952 9.10203C57.8112 9.10203 56.9443 9.42975 56.3946 10.0852C55.866 10.7406 55.5911 11.8189 55.57 13.32H62.2617Z" fill="#131313"/>
<path d="M75.9247 9.54604H71.5481V16.5232C71.5481 17.8129 71.6433 18.6692 71.8335 19.0921C72.0238 19.5149 72.5101 19.7264 73.2924 19.7264L75.893 19.6312L76.0516 22.3904C74.635 22.6652 73.5567 22.8027 72.8167 22.8027C71.0195 22.8027 69.7827 22.3904 69.1061 21.5658C68.4507 20.7412 68.123 19.1872 68.123 16.9038V9.54604H66.0932V6.5966H68.123V1.99801H71.5481V6.5966H75.9247V9.54604Z" fill="#131313"/>
<path d="M75.9373 6.5966H79.3308L81.8362 19.5044H82.4705L85.4834 6.91374H89.0354L92.0483 19.5044H92.6825L95.1563 6.5966H98.5814L95.2197 22.4538H89.7331L87.2594 11.5758L84.7857 22.4538H79.2991L75.9373 6.5966Z" fill="#131313"/>
<path d="M100.788 8.30917C101.887 6.93488 103.706 6.24774 106.243 6.24774C108.78 6.24774 110.588 6.93488 111.666 8.30917C112.766 9.68346 113.315 11.7449 113.315 14.4935C113.315 17.2421 112.787 19.3141 111.73 20.7095C110.672 22.1049 108.844 22.8027 106.243 22.8027C103.642 22.8027 101.813 22.1049 100.756 20.7095C99.6992 19.3141 99.1706 17.2421 99.1706 14.4935C99.1706 11.7449 99.7098 9.68346 100.788 8.30917ZM103.389 18.6164C103.875 19.4621 104.826 19.8849 106.243 19.8849C107.66 19.8849 108.611 19.4621 109.097 18.6164C109.584 17.7706 109.827 16.3858 109.827 14.4618C109.827 12.5378 109.562 11.174 109.034 10.3706C108.526 9.56718 107.596 9.16546 106.243 9.16546C104.89 9.16546 103.949 9.56718 103.42 10.3706C102.913 11.174 102.659 12.5378 102.659 14.4618C102.659 16.3858 102.902 17.7706 103.389 18.6164Z" fill="#131313"/>
<path d="M115.163 22.4538V6.5966H118.589V8.49946C120.386 7.3366 122.183 6.58602 123.98 6.24774V9.70461C122.162 10.064 120.608 10.5292 119.318 11.1L118.62 11.3855V22.4538H115.163Z" fill="#131313"/>
<path d="M128.494 22.4538H125.037V0H128.494V12.9712L130.46 12.7809L134.202 6.5966H138.072L133.505 14.0178L138.325 22.4538H134.424L130.555 15.7621L128.494 15.9841V22.4538Z" fill="#131313"/>
</svg>
