<svg width="90" height="21" viewBox="0 0 90 21" fill="none" xmlns="http://www.w3.org/2000/svg">
<path d="M38.9066 4.02626C39.217 4.35216 39.6903 4.51511 40.3266 4.51511C40.9629 4.51511 41.4285 4.35216 41.7233 4.02626C42.0182 3.68483 42.1656 3.26581 42.1656 2.7692C42.1656 2.24154 42.0182 1.81476 41.7233 1.48886C41.4285 1.16295 40.9629 1 40.3266 1C39.6903 1 39.217 1.16295 38.9066 1.48886C38.6117 1.81476 38.4643 2.24154 38.4643 2.7692C38.4643 3.26581 38.6117 3.68483 38.9066 4.02626Z" fill="#131313"/>
<path d="M24.1289 6.02824L28.0863 18.6687H33.2775L36.6995 6.02824H33.5801L31.0053 16.0149H30.4556L27.4578 6.02824H24.1289Z" fill="#131313"/>
<path d="M49.5263 19.0644C47.7882 19.0644 46.4225 18.6997 45.4292 17.9703C44.4515 17.2254 43.9394 16.2011 43.8928 14.8975H46.8027C46.8492 15.332 47.0898 15.7278 47.5243 16.0847C47.9589 16.4417 48.6417 16.6201 49.5729 16.6201C50.3488 16.6201 50.9618 16.4805 51.4119 16.2011C51.8775 15.9218 52.1103 15.5415 52.1103 15.0604C52.1103 14.6414 51.9318 14.3078 51.5749 14.0595C51.2334 13.8111 50.6437 13.6482 49.8057 13.5706L48.6883 13.4542C47.276 13.299 46.1897 12.8955 45.4292 12.2437C44.6688 11.5919 44.2886 10.7228 44.2886 9.63647C44.2886 8.76739 44.5058 8.03798 44.9404 7.44825C45.3749 6.85852 45.9724 6.41622 46.7329 6.12135C47.5088 5.81097 48.3934 5.65578 49.3866 5.65578C50.9386 5.65578 52.1956 5.9972 53.1578 6.68005C54.12 7.3629 54.6244 8.36389 54.6709 9.68302H51.7611C51.7301 9.24848 51.5128 8.87602 51.1093 8.56564C50.7058 8.25525 50.1238 8.10006 49.3634 8.10006C48.6805 8.10006 48.1529 8.23197 47.7804 8.4958C47.4079 8.75963 47.2217 9.10105 47.2217 9.52007C47.2217 9.92357 47.3691 10.234 47.664 10.4512C47.9744 10.6685 48.471 10.8159 49.1539 10.8935L50.2712 11.0099C51.7611 11.1651 52.925 11.5764 53.7631 12.2437C54.6166 12.911 55.0434 13.8111 55.0434 14.9441C55.0434 15.7821 54.8106 16.5115 54.345 17.1323C53.895 17.7375 53.2587 18.2109 52.4362 18.5523C51.6137 18.8937 50.6437 19.0644 49.5263 19.0644Z" fill="#131313"/>
<path d="M56.925 4.02626C57.2354 4.35216 57.7087 4.51511 58.345 4.51511C58.9813 4.51511 59.4469 4.35216 59.7417 4.02626C60.0366 3.68483 60.184 3.26581 60.184 2.7692C60.184 2.24154 60.0366 1.81476 59.7417 1.48886C59.4469 1.16295 58.9813 1 58.345 1C57.7087 1 57.2354 1.16295 56.925 1.48886C56.6301 1.81476 56.4827 2.24154 56.4827 2.7692C56.4827 3.26581 56.6301 3.68483 56.925 4.02626Z" fill="#131313"/>
<path fill-rule="evenodd" clip-rule="evenodd" d="M69.0346 19.111C67.9172 19.111 66.9317 18.9325 66.0781 18.5756C65.2246 18.2186 64.5029 17.7375 63.9132 17.1323C63.3235 16.5115 62.8734 15.8131 62.563 15.0372C62.2682 14.2612 62.1207 13.4542 62.1207 12.6162V12.1273C62.1207 11.2582 62.2759 10.4357 62.5863 9.65975C62.9122 8.86826 63.37 8.1699 63.9598 7.56465C64.565 6.94387 65.2944 6.46278 66.148 6.12135C67.0015 5.76441 67.9637 5.58594 69.0346 5.58594C70.1054 5.58594 71.0676 5.76441 71.9212 6.12135C72.7747 6.46278 73.4964 6.94387 74.0861 7.56465C74.6913 8.1699 75.1492 8.86826 75.4595 9.65975C75.7699 10.4357 75.9251 11.2582 75.9251 12.1273V12.6162C75.9251 13.4542 75.7699 14.2612 75.4595 15.0372C75.1647 15.8131 74.7224 16.5115 74.1326 17.1323C73.5429 17.7375 72.8213 18.2186 71.9677 18.5756C71.1142 18.9325 70.1364 19.111 69.0346 19.111ZM69.0346 16.3408C69.8261 16.3408 70.4934 16.1701 71.0366 15.8286C71.5797 15.4717 71.991 14.9984 72.2703 14.4086C72.5497 13.8034 72.6894 13.1205 72.6894 12.3601C72.6894 11.5841 72.5419 10.9013 72.2471 10.3116C71.9677 9.7063 71.5487 9.23297 70.99 8.89154C70.4468 8.5346 69.795 8.35613 69.0346 8.35613C68.2741 8.35613 67.6146 8.5346 67.0559 8.89154C66.5127 9.23297 66.0937 9.7063 65.7988 10.3116C65.5039 10.9013 65.3565 11.5841 65.3565 12.3601C65.3565 13.1205 65.4962 13.8034 65.7755 14.4086C66.0704 14.9984 66.4894 15.4717 67.0326 15.8286C67.5758 16.1701 68.2431 16.3408 69.0346 16.3408Z" fill="#131313"/>
<path d="M80.4345 8.23973C80.3233 8.51782 80.2301 8.81897 80.1551 9.14318V6.02824H77.5945V18.6687H80.8302V11.2427C80.8302 10.4202 81.0708 9.76838 81.5519 9.28728C82.0485 8.79067 82.6925 8.54236 83.484 8.54236C84.26 8.54236 84.8652 8.78291 85.2998 9.264C85.7498 9.7451 85.9749 10.3736 85.9749 11.1496V18.6687H89.2106V11.4289C89.2106 9.50455 88.8226 8.06126 88.0467 7.09907C87.2707 6.12136 86.1301 5.6325 84.6247 5.6325H84.485C83.4763 5.6325 82.6305 5.84977 81.9476 6.28431C81.2803 6.71885 80.7759 7.37066 80.4345 8.23973Z" fill="#131313"/>
<path d="M39.1394 8.44924V18.6687H42.3752V6.02824H37.3702V8.44924H39.1394Z" fill="#131313"/>
<path d="M57.1578 8.44924V18.6687H60.3936V6.02824H55.3886V8.44924H57.1578Z" fill="#131313"/>
<path d="M10.1328 0C15.7291 0 20.2664 4.53657 20.2666 10.1328C20.2666 15.7293 15.7293 20.2666 10.1328 20.2666C4.53657 20.2664 0 15.7291 0 10.1328C0.000239649 4.53672 4.53672 0.000239654 10.1328 0ZM9.0625 2.79297C5.47082 3.33862 2.71892 6.43958 2.71875 10.1836C2.71875 11.2761 2.9529 12.3145 3.37402 13.25C3.80121 12.8526 4.40147 12.6045 5.06641 12.6045C6.3631 12.6045 7.41406 13.5458 7.41406 14.7061C7.41393 15.4849 6.94018 16.1647 6.23633 16.5273C7.38418 17.2451 8.74077 17.6601 10.1943 17.6602C14.3234 17.6602 17.6709 14.3127 17.6709 10.1836C17.6709 9.80936 17.6439 9.44151 17.5908 9.08203C16.6459 10.1869 15.3144 10.875 13.8398 10.875C10.9735 10.8748 8.64941 8.27403 8.64941 5.06641C8.64945 4.25962 8.79681 3.4912 9.0625 2.79297Z" fill="#FFA500"/>
</svg>
